<?xml version="1.0" standalone="no"?>
<!DOCTYPE svg PUBLIC "-//W3C//DTD SVG 20010904//EN"
 "http://www.w3.org/TR/2001/REC-SVG-20010904/DTD/svg10.dtd">
<svg version="1.0" xmlns="http://www.w3.org/2000/svg"
 width="1200.000000pt" height="1200.000000pt" viewBox="0 0 1200.000000 1200.000000"
 preserveAspectRatio="xMidYMid meet">

<g transform="translate(0.000000,1200.000000) scale(0.100000,-0.100000)"
fill="#000000" stroke="none">
<path d="M5760 11750 c-1505 -61 -2910 -703 -3953 -1808 -796 -844 -1328
-1937 -1496 -3077 -42 -281 -53 -428 -58 -770 -5 -365 7 -588 48 -883 134
-960 516 -1889 1094 -2656 757 -1006 1817 -1738 3014 -2080 723 -208 1495
-271 2242 -186 901 103 1742 408 2499 904 1380 907 2302 2353 2539 3981 43
296 54 458 55 810 1 348 -8 500 -45 778 -183 1384 -868 2657 -1924 3578 -1111
968 -2535 1468 -4015 1409z m705 -40 c473 -41 904 -130 1340 -275 1444 -480
2632 -1511 3316 -2876 314 -627 496 -1258 576 -1999 26 -237 26 -875 0 -1110
-82 -749 -257 -1357 -574 -1990 -298 -598 -605 -1024 -1082 -1501 -373 -372
-680 -614 -1106 -868 -1143 -684 -2469 -943 -3810 -745 -423 62 -910 198
-1322 370 -916 381 -1714 992 -2331 1783 -430 551 -787 1252 -976 1916 -342
1203 -288 2483 154 3635 382 996 1052 1886 1902 2526 921 693 2014 1088 3178
1148 125 6 607 -3 735 -14z"/>
<path d="M6502 11525 c-34 -25 -52 -69 -51 -127 1 -65 10 -100 28 -106 10 -3
11 6 6 41 -18 119 96 182 155 85 23 -38 38 -84 47 -147 l6 -44 -66 7 c-37 3
-67 4 -67 1 0 -3 7 -19 15 -35 12 -23 25 -31 55 -36 32 -5 40 -11 40 -28 0
-11 -12 -144 -27 -295 l-27 -274 29 -23 c16 -13 31 -22 32 -20 2 2 17 142 34
312 17 170 32 310 33 311 1 2 32 -1 68 -5 l66 -8 -19 38 c-14 28 -26 38 -43
38 -13 0 -38 3 -55 6 -25 5 -31 11 -31 33 -1 75 -57 228 -99 265 -28 26 -100
32 -129 11z"/>
<path d="M4798 11405 c-78 -25 -119 -96 -104 -179 4 -21 25 -55 51 -84 l45
-50 -50 -11 c-28 -6 -58 -11 -65 -11 -22 0 -18 -13 9 -39 21 -20 31 -22 70
-17 25 4 46 3 46 -1 0 -5 25 -123 55 -262 30 -139 55 -255 55 -257 0 -2 19
-13 41 -25 39 -20 42 -20 37 -2 -22 88 -121 564 -117 567 6 6 241 57 244 54 7
-9 36 -192 32 -203 -3 -6 -19 -15 -36 -18 -50 -10 -42 -48 20 -97 54 -43 95
-51 106 -23 4 10 -6 91 -21 181 -15 90 -25 166 -22 169 11 11 151 32 217 32
l66 1 12 -167 c6 -93 14 -214 18 -271 l6 -102 34 -21 c19 -12 36 -20 38 -18 1
2 -5 117 -16 254 -10 138 -18 268 -19 291 l0 40 88 12 c48 7 164 12 257 13
l170 2 3 -103 3 -103 -40 36 c-55 50 -96 69 -148 69 -85 0 -127 -33 -139 -110
-6 -39 15 -103 48 -143 51 -62 151 -77 227 -34 23 14 47 25 52 25 5 0 9 -42 9
-92 l0 -93 35 -23 35 -22 0 159 0 159 47 31 c92 61 195 26 179 -61 -3 -19 -22
-61 -42 -93 l-35 -59 26 -25 26 -26 19 25 c11 14 29 50 41 80 35 93 8 184 -70
237 -41 28 -82 29 -140 3 -24 -11 -47 -20 -52 -20 -5 0 -9 43 -9 95 l0 95 195
0 c107 0 195 3 195 8 -1 4 -11 20 -24 35 l-23 28 -421 -7 c-232 -4 -422 -11
-422 -15 0 -4 4 -11 10 -14 5 -3 15 -16 20 -28 8 -16 5 -14 -13 7 l-25 29
-129 -7 c-70 -4 -148 -9 -173 -13 -62 -7 -404 -69 -464 -84 -49 -11 -50 -11
-73 17 -87 108 -23 244 114 244 57 0 118 -26 190 -81 32 -24 53 -34 53 -26 0
18 -102 94 -169 125 -67 31 -122 36 -183 17z m1203 -437 c52 -29 75 -64 57
-85 -22 -27 -130 -73 -171 -73 -69 0 -118 73 -87 130 28 52 133 66 201 28z"/>
<path d="M4201 11263 c38 -52 53 -62 74 -57 50 12 107 -16 178 -88 38 -38 67
-75 64 -81 -2 -7 -38 -21 -79 -32 -42 -11 -79 -23 -83 -26 -3 -4 8 -17 25 -29
27 -19 36 -21 71 -12 21 5 41 7 43 3 2 -3 34 -116 70 -251 37 -135 70 -251 74
-259 11 -19 86 -46 79 -28 -12 31 -147 537 -147 550 0 16 3 18 80 37 l45 12
-30 24 c-25 20 -37 24 -70 19 -40 -6 -42 -5 -93 60 -58 72 -136 138 -190 161
-19 7 -55 14 -79 14 -42 0 -44 -1 -32 -17z"/>
<path d="M7424 11024 c3 -9 9 -27 12 -40 5 -20 22 -29 108 -56 55 -18 103 -33
105 -35 8 -5 -62 -192 -78 -207 -24 -22 -28 -21 -73 20 -39 35 -40 35 -60 17
-30 -27 -19 -78 62 -270 39 -92 72 -169 75 -171 2 -2 12 -1 23 2 18 6 16 16
-38 146 -32 77 -55 142 -51 144 3 2 19 6 35 10 17 4 42 16 56 26 l26 19 43
-50 c52 -61 90 -81 143 -77 37 3 42 6 54 39 l12 37 -61 -5 c-53 -4 -67 -2 -96
19 -19 12 -43 34 -53 48 -18 25 -18 26 13 120 17 52 35 98 38 103 8 9 239 -69
259 -88 2 -1 -40 -113 -93 -247 -52 -134 -95 -251 -95 -259 0 -21 37 -73 43
-62 4 6 52 126 107 269 56 142 105 262 109 266 3 4 31 -1 60 -13 29 -11 55
-18 58 -15 2 2 1 19 -2 38 -6 32 -10 35 -113 72 -59 21 -111 42 -117 46 -5 5
-111 40 -235 79 -124 40 -238 76 -254 81 -24 8 -27 7 -22 -6z"/>
<path d="M8150 11019 c-50 -19 -50 -19 -32 -71 15 -43 29 -46 84 -20 l36 17
-21 46 -22 46 -45 -18z"/>
<path d="M3990 10839 c-173 -66 -326 -124 -339 -129 l-24 -11 34 -23 34 -23
62 23 c35 14 92 36 128 49 l66 25 14 -35 c8 -19 15 -38 15 -43 0 -4 -32 -19
-72 -32 -165 -57 -173 -133 -22 -195 36 -15 57 -30 55 -37 -16 -48 -12 -86 13
-115 58 -68 173 -80 262 -28 43 25 113 107 114 133 0 26 18 10 34 -31 14 -37
22 -44 56 -54 22 -5 40 -8 40 -6 0 3 -47 126 -105 274 -58 148 -103 274 -100
279 3 4 28 16 55 25 27 9 52 20 54 23 2 4 -10 17 -28 28 l-31 21 -315 -118z
m255 -170 c69 -175 69 -173 8 -267 -43 -65 -115 -129 -154 -137 -36 -8 -65 13
-86 63 -20 47 4 95 58 116 22 9 45 16 52 16 7 0 21 6 31 13 15 11 17 17 7 35
-17 31 -66 28 -162 -10 -78 -30 -81 -31 -115 -15 -60 29 -39 61 66 101 135 50
135 50 100 132 -11 26 -19 51 -17 57 4 12 117 57 137 54 9 -1 38 -62 75 -158z"/>
<path d="M3117 10809 c-18 -10 -17 -13 9 -40 25 -27 31 -28 84 -22 48 5 66 2
111 -19 55 -26 159 -97 159 -110 0 -4 -9 -12 -21 -19 -18 -9 -32 -5 -84 21
-66 34 -135 47 -181 36 l-27 -7 28 -29 c22 -23 32 -27 46 -20 27 15 107 12
140 -6 36 -18 37 -16 -30 -52 l-52 -29 39 -17 c36 -17 42 -17 70 -2 17 9 35
16 40 16 6 0 69 -105 142 -234 l131 -234 40 -7 c22 -4 42 -5 43 -3 2 1 -62
117 -141 256 -78 140 -143 257 -143 260 0 4 26 21 58 39 l57 31 -37 18 c-31
14 -42 15 -63 6 -23 -11 -32 -6 -111 53 -47 35 -110 76 -140 90 -63 30 -140
41 -167 24z"/>
<path d="M8220 10743 c1 -51 13 -64 104 -110 50 -25 92 -47 94 -48 7 -6 -72
-152 -96 -177 -34 -37 -47 -35 -77 12 -29 45 -47 50 -69 18 -23 -33 -20 -67
19 -229 53 -216 54 -219 71 -219 26 0 25 23 -6 152 -16 70 -30 133 -30 140 0
8 14 14 36 16 19 1 48 9 64 17 l28 15 31 -55 c41 -72 96 -110 151 -102 l40 5
0 -44 c0 -126 98 -224 240 -239 55 -6 55 -6 78 29 12 20 22 37 22 39 0 2 -16
1 -35 -1 -55 -7 -181 26 -216 56 -28 23 -59 76 -59 101 0 5 48 11 108 13 125
4 175 25 211 88 27 48 27 85 -1 140 -55 108 -213 122 -255 23 -20 -49 -10 -92
34 -149 l35 -47 -77 6 c-42 3 -79 8 -82 10 -2 3 0 14 5 24 9 16 6 18 -34 14
-56 -4 -122 33 -149 83 l-19 35 49 93 c26 51 49 94 50 96 2 2 48 -20 104 -47
55 -28 103 -51 106 -51 4 0 5 17 3 38 l-3 37 -230 117 c-126 64 -233 117 -237
118 -5 0 -8 -8 -8 -17z m633 -345 c78 -41 54 -157 -39 -188 -40 -14 -56 -5
-81 44 -29 56 -13 114 39 143 29 16 53 16 81 1z"/>
<path d="M3160 10430 c-63 -39 -179 -114 -258 -168 l-142 -97 37 -17 c35 -16
38 -16 64 3 15 10 31 19 36 19 4 -1 34 -39 65 -85 53 -77 62 -85 115 -105 45
-17 70 -21 116 -16 31 3 57 2 57 -2 0 -5 -18 -53 -40 -107 -22 -54 -39 -100
-37 -101 2 -2 18 -5 36 -6 l33 -3 54 154 c30 85 54 160 54 165 0 6 -9 22 -19
35 l-19 25 -15 -35 c-34 -81 -130 -116 -190 -69 -23 18 -147 181 -147 193 0
15 217 150 229 143 4 -3 72 -106 150 -230 l142 -224 44 -4 c27 -2 41 1 37 7
-3 6 -75 119 -160 253 -85 134 -153 244 -151 246 2 1 28 17 57 36 l54 33 -32
14 c-18 7 -37 13 -44 13 -6 0 -63 -32 -126 -70z"/>
<path d="M5670 10419 c-955 -72 -1847 -444 -2576 -1072 -129 -112 -379 -365
-485 -492 -502 -599 -842 -1328 -974 -2085 -74 -430 -85 -902 -29 -1340 141
-1120 734 -2173 1624 -2884 732 -587 1655 -932 2575 -964 767 -27 1443 111
2110 432 441 213 808 469 1162 810 730 704 1189 1632 1319 2666 21 172 30 670
15 852 -91 1083 -536 2046 -1296 2803 -326 324 -687 585 -1100 796 -546 279
-1091 432 -1704 479 -153 11 -484 11 -641 -1z m677 -20 c1324 -108 2500 -785
3270 -1879 798 -1134 1006 -2618 552 -3946 -451 -1320 -1520 -2362 -2850
-2779 -1075 -337 -2254 -249 -3254 243 -1284 632 -2178 1824 -2415 3217 -48
285 -55 382 -55 765 1 391 13 529 76 845 201 1016 757 1930 1569 2580 683 547
1516 880 2385 954 147 12 574 13 722 0z"/>
<path d="M5941 9988 c-25 -12 -52 -36 -63 -55 -14 -22 -43 -45 -91 -70 -51
-27 -100 -65 -168 -133 -147 -145 -257 -324 -364 -595 -26 -66 -48 -121 -49
-122 -1 -1 -64 10 -141 23 -175 30 -435 42 -555 25 -120 -17 -220 -46 -300
-86 -46 -23 -84 -35 -111 -35 -113 0 -198 -107 -168 -212 8 -26 12 -92 10
-163 -2 -101 2 -136 23 -218 27 -106 91 -249 163 -367 54 -87 201 -286 232
-314 25 -23 27 -49 4 -67 -29 -24 -167 -202 -225 -290 -157 -239 -237 -485
-211 -655 7 -53 7 -78 -4 -115 -11 -37 -12 -57 -3 -88 21 -79 106 -144 183
-140 19 1 63 -13 107 -34 197 -96 455 -116 813 -66 76 11 142 17 146 14 5 -2
12 -17 16 -32 13 -53 93 -249 140 -343 63 -127 140 -241 220 -328 66 -71 195
-167 241 -178 13 -3 24 -10 24 -14 0 -16 53 -71 83 -87 18 -9 55 -16 84 -16
64 0 125 36 150 87 10 21 30 41 57 53 215 105 431 417 579 836 8 21 8 21 141
-3 355 -65 665 -43 868 59 43 22 85 37 96 34 30 -7 98 15 133 44 54 46 75 131
48 200 -6 15 -12 89 -14 163 -2 148 -15 204 -78 350 -67 154 -168 310 -341
525 l-24 30 80 95 c158 187 287 403 342 573 29 88 51 235 42 279 -4 19 1 42
14 68 39 77 16 183 -50 230 -17 12 -54 25 -83 29 -33 5 -69 19 -99 40 -64 43
-152 78 -262 104 -161 37 -554 27 -743 -20 -14 -3 -25 0 -27 8 -76 223 -186
455 -277 582 -77 109 -196 222 -277 265 -34 18 -62 37 -62 42 0 18 -65 83 -97
96 -47 20 -102 17 -152 -8z m6 -312 c37 -19 114 -21 146 -5 12 6 34 23 49 36
24 23 30 24 61 14 46 -16 139 -81 206 -144 109 -105 218 -275 303 -472 43 -99
46 -111 30 -117 -9 -4 -87 -25 -172 -48 -155 -42 -332 -102 -489 -166 l-83
-35 -84 36 c-194 83 -452 173 -598 207 -31 7 -56 16 -56 20 0 16 84 196 122
262 131 226 260 364 416 442 l66 34 26 -24 c14 -13 39 -31 57 -40z m-879 -697
c62 -6 114 -14 117 -18 2 -4 -12 -61 -31 -126 -39 -137 -98 -415 -115 -552
l-13 -93 -95 -72 c-144 -110 -274 -221 -398 -341 l-111 -108 -45 58 c-110 143
-206 321 -259 476 -33 98 -48 247 -34 340 7 43 8 45 47 50 98 13 173 132 139
221 -8 22 -5 28 20 46 50 36 153 79 237 100 144 37 302 42 541 19z m2197 -9
c195 -19 318 -57 433 -133 44 -30 60 -46 56 -57 -13 -32 -16 -99 -5 -133 15
-46 80 -104 124 -112 33 -7 35 -9 42 -60 14 -116 -29 -293 -111 -459 -45 -91
-168 -280 -222 -345 l-29 -34 -29 38 c-55 73 -378 361 -526 470 -26 19 -29 28
-48 180 -22 172 -65 397 -103 537 l-24 88 31 5 c28 6 197 20 271 24 17 0 79
-4 140 -9z m-1856 -55 c148 -38 354 -105 479 -157 l74 -31 -194 -96 c-265
-132 -365 -191 -689 -404 l-26 -18 23 137 c35 197 120 519 155 587 13 23 15
22 178 -18z m1396 -61 c52 -172 111 -444 130 -607 l6 -57 -139 95 c-197 133
-379 241 -585 346 -99 50 -175 94 -171 99 15 13 283 106 389 136 122 33 292
72 322 73 19 1 25 -10 48 -85z m-618 -233 c98 -48 230 -119 293 -156 129 -76
388 -249 437 -292 l32 -28 12 -180 c20 -303 -6 -868 -42 -911 -20 -24 -285
-197 -427 -278 -154 -88 -270 -148 -413 -211 l-101 -45 -142 68 c-236 114
-518 283 -728 436 l-76 56 -9 88 c-20 213 -6 837 23 984 7 38 246 198 534 359
103 57 398 198 417 199 6 0 91 -40 190 -89z m-1179 -592 c-14 -126 -18 -845
-5 -891 4 -16 4 -28 -1 -28 -14 0 -193 152 -302 257 -119 113 -240 248 -240
265 0 34 540 531 557 514 2 -2 -2 -55 -9 -117z m2127 -32 c120 -102 385 -372
385 -391 0 -42 -534 -535 -556 -513 -3 3 1 61 8 129 14 137 18 769 5 857 l-8
53 28 -20 c15 -11 78 -63 138 -115z m-2360 -742 c66 -56 146 -121 177 -144 55
-41 57 -44 63 -99 25 -219 58 -402 107 -600 17 -68 29 -125 26 -127 -10 -10
-187 -25 -303 -25 -148 0 -279 17 -382 50 -92 29 -209 93 -204 111 12 40 4
126 -14 157 -25 41 -79 79 -127 87 -42 8 -45 13 -54 98 -20 202 105 511 315
775 l42 53 117 -117 c64 -64 171 -163 237 -219z m2818 263 c183 -228 307 -520
307 -724 0 -121 -6 -142 -44 -149 -92 -19 -150 -100 -144 -203 l3 -56 -82 -43
c-125 -67 -244 -94 -438 -100 -145 -4 -385 13 -401 30 -3 2 13 67 34 143 38
134 87 366 114 543 l13 85 118 92 c153 119 281 231 387 337 47 46 88 85 92 86
4 0 22 -18 41 -41z m-2417 -569 c158 -111 426 -268 606 -357 86 -42 157 -80
157 -83 1 -4 -63 -29 -141 -58 -262 -94 -584 -174 -599 -150 -11 18 -75 251
-99 359 -21 95 -60 329 -60 363 0 21 -7 25 136 -74z m1729 -47 c-32 -190 -138
-587 -165 -615 -10 -11 -223 41 -387 94 -115 37 -322 115 -332 124 -2 2 57 33
132 68 216 103 545 293 727 420 19 14 37 21 38 16 2 -5 -4 -53 -13 -107z
m-784 -468 c150 -62 416 -152 527 -179 86 -21 86 -7 2 -180 -132 -273 -310
-478 -481 -554 l-44 -20 -25 24 c-31 30 -90 55 -127 55 -36 -1 -103 -31 -127
-59 -26 -29 -40 -27 -121 18 -175 97 -341 311 -461 594 -25 60 -44 110 -42
111 1 1 55 15 118 31 141 34 368 109 515 169 61 24 115 45 121 45 5 1 71 -24
145 -55z"/>
<path d="M5892 8398 l2 -103 3 98 4 97 89 0 90 0 0 -95 c0 -52 3 -95 8 -95 4
0 6 45 4 100 l-3 100 -100 0 -99 0 2 -102z"/>
<path d="M5545 8385 c-38 -25 -74 -46 -78 -47 -5 -2 14 -41 43 -87 l51 -82
-45 -40 c-25 -22 -56 -55 -68 -72 -12 -18 10 1 49 41 l72 72 -44 74 c-25 40
-45 77 -45 82 0 5 31 28 70 51 l70 42 26 -44 c36 -62 42 -57 7 5 -15 27 -30
50 -33 49 -3 0 -36 -20 -75 -44z"/>
<path d="M6324 8368 c-46 -78 -46 -78 -40 -78 2 0 19 25 36 56 18 30 38 58 45
60 11 5 130 -60 139 -75 3 -4 -17 -42 -43 -84 l-47 -78 69 -70 69 -69 74 45
c41 25 78 45 82 45 4 0 26 -32 49 -70 l42 -70 -37 -23 c-20 -13 -58 -36 -84
-51 -35 -21 -45 -31 -40 -44 6 -16 7 -16 10 0 2 10 38 38 80 64 42 25 78 47
80 49 1 1 -19 39 -45 83 l-49 80 -79 -48 -80 -49 -62 62 c-35 34 -63 65 -63
69 0 4 21 41 46 83 25 42 45 78 43 79 -3 3 -121 75 -151 92 -3 2 -23 -24 -44
-58z"/>
<path d="M5690 8300 c6 -11 13 -20 16 -20 2 0 0 9 -6 20 -6 11 -13 20 -16 20
-2 0 0 -9 6 -20z"/>
<path d="M5848 8293 c6 -2 18 -2 25 0 6 3 1 5 -13 5 -14 0 -19 -2 -12 -5z"/>
<path d="M6118 8293 c6 -2 18 -2 25 0 6 3 1 5 -13 5 -14 0 -19 -2 -12 -5z"/>
<path d="M5808 8283 c7 -3 16 -2 19 1 4 3 -2 6 -13 5 -11 0 -14 -3 -6 -6z"/>
<path d="M6175 8280 c11 -5 27 -9 35 -9 9 0 8 4 -5 9 -11 5 -27 9 -35 9 -9 0
-8 -4 5 -9z"/>
<path d="M5745 8271 c-11 -5 -24 -6 -29 -3 -5 3 -6 0 -2 -6 5 -8 15 -8 39 0
17 6 34 13 36 14 8 7 -24 3 -44 -5z"/>
<path d="M6265 8270 c-3 -5 -13 -7 -23 -4 -14 5 -15 4 -2 -5 20 -14 27 -14 34
4 6 17 0 20 -9 5z"/>
<path d="M5986 8023 c-10 -224 -1 -373 22 -373 12 0 13 3 5 11 -8 8 -10 63 -7
178 3 91 1 211 -3 266 l-9 100 -8 -182z"/>
<path d="M5851 8159 c-3 -21 72 -340 93 -399 38 -103 31 -108 -13 -10 -30 68
-193 336 -218 360 -17 17 157 -315 192 -365 69 -98 55 -119 -52 -78 -62 23
-372 97 -379 90 -2 -1 61 -24 140 -50 155 -51 288 -81 319 -71 12 4 17 2 13
-4 -3 -6 -73 -8 -183 -5 -98 2 -212 0 -253 -4 -72 -9 -69 -9 101 -17 201 -9
349 -1 349 19 0 7 6 16 13 18 9 4 8 6 -2 6 -11 1 -11 4 -1 16 18 22 -11 172
-69 350 -27 83 -50 147 -50 144z"/>
<path d="M6082 7982 c-29 -92 -57 -196 -64 -231 -11 -61 -10 -65 11 -82 24
-20 24 -20 123 25 51 23 299 175 323 198 23 23 -285 -138 -352 -183 -40 -27
-73 -47 -73 -45 0 3 27 27 60 53 33 27 117 112 187 188 69 77 111 126 92 109
-196 -175 -252 -227 -298 -282 -70 -82 -83 -70 -43 40 30 80 98 365 90 374 -2
2 -28 -72 -56 -164z"/>
<path d="M5290 8112 c19 -10 56 -30 83 -46 26 -15 47 -26 47 -23 0 8 -138 87
-151 87 -7 0 2 -8 21 -18z"/>
<path d="M6188 7973 c-86 -131 -166 -279 -156 -289 10 -9 103 138 176 279 46
86 82 157 80 157 -2 0 -47 -66 -100 -147z"/>
<path d="M5216 8049 c-20 -33 -36 -64 -36 -69 0 -5 28 -25 63 -46 77 -46 77
-46 77 -41 0 3 -29 22 -65 43 -36 21 -65 42 -65 46 0 5 11 25 23 46 31 49 49
82 44 82 -3 0 -21 -27 -41 -61z"/>
<path d="M5708 7889 c111 -124 219 -226 228 -216 13 13 -264 295 -326 332 -8
5 36 -47 98 -116z"/>
<path d="M5333 7862 c-1 -22 0 -24 9 -8 6 10 6 22 2 26 -5 5 -10 -3 -11 -18z"/>
<path d="M5535 7883 c50 -50 379 -242 392 -229 10 10 -146 109 -271 172 -72
37 -126 62 -121 57z"/>
<path d="M6661 7794 c0 -11 3 -14 6 -6 3 7 2 16 -1 19 -3 4 -6 -2 -5 -13z"/>
<path d="M5311 7784 c0 -11 3 -14 6 -6 3 7 2 16 -1 19 -3 4 -6 -2 -5 -13z"/>
<path d="M6671 7754 c0 -11 3 -14 6 -6 3 7 2 16 -1 19 -3 4 -6 -2 -5 -13z"/>
<path d="M5301 7738 l-1 -28 -100 0 -100 0 0 -95 0 -94 97 -3 c94 -3 97 -4
104 -28 4 -14 7 -18 8 -8 3 44 -7 48 -105 48 l-94 0 0 85 0 85 95 0 c100 0
113 6 102 47 -3 12 -5 8 -6 -9z"/>
<path d="M6360 7729 c-141 -30 -295 -77 -286 -86 12 -12 162 21 302 66 82 27
142 49 134 49 -8 0 -76 -13 -150 -29z"/>
<path d="M6680 7708 c0 -5 43 -8 95 -8 l95 0 0 -85 0 -85 -95 0 c-84 0 -95 -2
-94 -17 0 -11 3 -13 6 -5 3 8 33 12 99 12 l94 0 0 94 0 95 -100 3 c-55 2 -100
0 -100 -4z"/>
<path d="M6030 7646 c0 -13 50 -29 114 -37 95 -11 445 2 366 13 -30 5 -145 9
-255 11 -110 1 -206 6 -212 10 -7 5 -13 6 -13 3z"/>
<path d="M6045 7600 c-3 -6 -11 -7 -17 -4 -7 4 -8 2 -4 -4 4 -7 3 -12 -2 -12
-12 0 -30 -63 -36 -130 -3 -30 -3 -134 1 -230 6 -149 8 -166 15 -115 4 33 9
148 10 255 l2 195 18 -100 c15 -88 105 -388 107 -359 2 26 -69 333 -88 382
-33 83 -23 84 15 2 33 -70 210 -360 221 -360 10 0 -161 317 -204 379 -24 35
-42 65 -40 67 2 3 23 -20 47 -51 37 -48 240 -244 295 -285 43 -33 -227 259
-279 300 -77 61 -62 63 21 3 62 -45 381 -219 358 -195 -26 27 -310 202 -368
227 -92 39 -76 44 20 7 68 -27 339 -93 368 -91 19 1 -250 90 -315 103 -118 25
-138 27 -145 16z m-7 -30 c-7 -10 -14 -17 -17 -15 -4 4 18 35 25 35 2 0 -1 -9
-8 -20z"/>
<path d="M5835 7585 c-76 -13 -354 -97 -338 -102 18 -6 288 56 362 82 105 38
109 21 13 -58 -43 -37 -85 -75 -93 -86 -8 -11 -57 -66 -109 -123 -52 -57 -79
-89 -60 -72 196 174 243 217 294 277 35 41 62 65 68 59 5 -5 -3 -39 -20 -83
-26 -65 -107 -397 -99 -405 7 -7 108 334 121 406 17 95 17 110 -2 102 -9 -3
-13 -1 -10 4 9 13 -47 13 -127 -1z"/>
<path d="M5845 7541 c-67 -32 -335 -197 -354 -218 -15 -15 321 165 382 205 37
25 67 47 67 49 0 8 -20 0 -95 -36z"/>
<path d="M5911 7488 c-45 -62 -199 -348 -187 -348 17 0 255 405 243 416 -2 2
-27 -28 -56 -68z"/>
<path d="M6666 7459 c-3 -18 -4 -34 -2 -36 2 -3 7 10 11 27 4 17 5 34 2 36 -2
3 -7 -10 -11 -27z"/>
<path d="M5311 7444 c0 -11 3 -14 6 -6 3 7 2 16 -1 19 -3 4 -6 -2 -5 -13z"/>
<path d="M6637 7367 c-5 -12 14 -29 78 -67 l85 -51 -26 -45 c-14 -24 -24 -44
-21 -44 7 0 60 91 55 94 -1 2 -36 22 -76 46 -41 24 -77 52 -81 63 -7 17 -9 18
-14 4z"/>
<path d="M5265 7309 c-44 -27 -81 -54 -83 -62 -1 -7 4 -21 13 -32 14 -19 15
-18 4 8 -7 15 -10 29 -8 31 2 1 38 23 79 46 88 51 85 49 79 54 -2 1 -40 -19
-84 -45z"/>
<path d="M5359 7154 c-41 -24 -79 -44 -85 -44 -6 0 -20 18 -33 40 -12 22 -25
40 -28 40 -4 0 40 -82 52 -98 2 -2 36 17 78 43 41 25 79 45 83 45 5 0 37 -27
72 -59 l62 -60 -50 -82 c-56 -94 -61 -78 46 -142 71 -43 70 -42 78 -21 5 13 3
14 -6 6 -10 -8 -30 0 -78 29 -36 21 -66 43 -68 49 -2 5 17 44 42 86 l47 76
-69 68 -69 68 -74 -44z"/>
<path d="M6479 7129 l-66 -67 50 -81 c27 -45 48 -83 46 -85 -2 -2 -35 -22 -74
-44 -58 -35 -72 -39 -80 -28 -5 8 -16 23 -23 33 -7 10 -6 4 3 -14 8 -17 19
-34 23 -37 7 -4 140 69 158 87 3 3 -15 40 -40 82 -25 42 -46 79 -46 83 0 4 27
34 60 67 l60 59 32 -17 c18 -9 56 -30 85 -47 l52 -31 16 33 c14 31 14 32 -1
11 -9 -13 -21 -23 -26 -23 -6 0 -44 20 -85 45 -40 25 -75 44 -76 43 -1 -1 -32
-32 -68 -69z"/>
<path d="M5684 6918 c-46 -78 -46 -78 -41 -78 3 0 18 21 33 48 15 26 34 57 42
70 8 12 12 22 9 22 -3 0 -22 -28 -43 -62z"/>
<path d="M6195 6960 c-33 -10 -72 -21 -87 -24 l-28 -6 0 -95 0 -95 -90 0 -89
0 -4 98 -3 97 -2 -102 -2 -103 100 0 100 0 0 95 c0 68 4 97 13 99 6 2 45 12
85 23 l73 20 25 -43 c36 -61 42 -55 7 6 -15 27 -30 50 -33 49 -3 -1 -32 -9
-65 -19z"/>
<path d="M5750 6960 c8 -5 22 -9 30 -9 10 0 8 3 -5 9 -27 12 -43 12 -25 0z"/>
<path d="M5808 6943 c7 -3 16 -2 19 1 4 3 -2 6 -13 5 -11 0 -14 -3 -6 -6z"/>
<path d="M5848 6933 c6 -2 18 -2 25 0 6 3 1 5 -13 5 -14 0 -19 -2 -12 -5z"/>
<path d="M7350 4622 c-34 -11 -129 -17 -390 -22 -288 -6 -354 -10 -400 -24
-65 -21 -163 -71 -184 -95 -19 -22 -643 -1124 -667 -1179 -51 -118 -44 -232
25 -410 20 -52 43 -117 50 -145 7 -29 16 -45 20 -38 10 16 -9 134 -34 205 -11
33 -20 60 -20 62 0 1 21 10 48 18 157 52 410 71 776 56 329 -13 755 -13 865 0
46 5 93 16 105 23 19 13 28 65 110 694 49 374 86 690 83 705 -4 14 -15 35 -24
46 -16 18 -26 19 -98 13 l-80 -6 -7 -124 c-9 -158 -22 -266 -59 -464 -35 -189
-147 -698 -155 -706 -9 -9 -284 -5 -619 9 -411 17 -594 3 -882 -67 -21 -5 -23
-2 -23 38 0 24 11 69 23 99 22 54 22 54 92 76 187 58 374 67 704 33 176 -19
221 -20 311 -11 102 11 240 45 240 60 0 4 22 102 49 217 88 375 198 922 189
944 -2 4 -23 1 -48 -7z m-595 -352 c226 -19 225 -19 225 -43 -1 -59 -6 -63
-77 -57 -41 4 -67 2 -69 -5 -13 -38 -34 -188 -34 -239 0 -66 11 -90 48 -101
17 -5 30 1 53 24 38 38 50 39 40 3 -24 -83 -63 -122 -122 -122 -29 0 -43 7
-63 31 -37 44 -39 139 -5 313 10 55 16 102 13 105 -6 6 -134 15 -134 9 0 -15
-52 -290 -60 -319 -18 -62 -52 -104 -88 -107 -26 -3 -34 1 -41 20 -11 29 -6
44 31 91 49 63 77 142 102 290 l7 37 -41 0 c-32 0 -48 -7 -80 -36 -46 -42 -61
-39 -38 9 40 84 95 119 173 111 22 -2 94 -8 160 -14z"/>
<path d="M5840 4515 c-36 -7 -139 -32 -230 -55 -110 -28 -189 -42 -239 -43
l-73 -2 -522 -628 c-286 -345 -523 -632 -525 -638 -2 -6 4 -30 13 -53 16 -41
20 -44 63 -50 80 -11 295 -7 515 10 260 20 492 14 618 -15 115 -26 162 -43
170 -61 16 -33 63 -192 71 -242 8 -52 8 -52 5 17 -2 39 -22 149 -46 246 l-43
176 -51 16 c-163 51 -364 59 -718 27 -124 -12 -263 -20 -309 -18 l-84 3 1 45
c1 25 9 62 17 82 15 37 16 37 54 26 54 -15 198 -4 403 32 317 56 511 51 660
-16 33 -15 63 -25 65 -22 10 9 615 1089 615 1097 0 13 -75 50 -135 66 -71 18
-205 18 -295 0z m-246 -289 c104 -61 122 -213 45 -383 -55 -124 -129 -199
-217 -222 -83 -23 -174 27 -208 114 -24 64 -15 179 21 268 81 200 235 296 359
223z"/>
<path d="M5495 4210 c-57 -23 -149 -171 -200 -324 -50 -149 -23 -236 72 -236
58 0 157 141 216 307 50 139 45 218 -14 248 -31 17 -45 18 -74 5z"/>
<path d="M4331 2634 c-12 -15 -21 -40 -20 -58 l1 -31 11 26 c20 44 38 59 72
59 25 0 40 -8 59 -31 14 -17 26 -35 26 -41 0 -6 3 -9 6 -6 3 3 -4 24 -15 45
-33 65 -104 83 -140 37z"/>
<path d="M4260 2541 c0 -10 9 -21 20 -24 20 -5 20 -5 -1 -54 -86 -196 -88
-202 -75 -212 9 -8 25 20 66 114 30 69 57 125 60 125 7 0 213 -80 217 -84 2
-2 -5 -24 -14 -49 -17 -47 -33 -61 -33 -31 0 8 -13 29 -29 45 -36 36 -90 40
-121 9 -25 -25 -25 -56 0 -98 23 -38 62 -56 107 -48 l33 5 -15 -36 c-15 -35
-11 -84 5 -67 4 5 27 62 50 128 24 65 49 120 54 122 16 6 139 -29 143 -41 1
-5 -1 -16 -6 -23 -7 -11 -16 -11 -49 -1 -22 6 -48 9 -56 6 -21 -8 -20 -46 1
-77 12 -17 13 -25 5 -28 -42 -14 -29 -92 19 -117 33 -18 82 -19 111 -4 19 10
20 9 16 -14 -3 -13 0 -31 7 -40 9 -13 18 7 49 107 21 68 42 129 46 135 4 8 19
10 42 6 l34 -6 -33 -127 c-26 -102 -30 -129 -20 -139 10 -11 20 13 47 122 33
130 36 136 59 133 19 -2 25 -9 26 -32 0 -19 11 -36 30 -51 l28 -23 -36 -7
c-42 -8 -42 -7 -22 -49 20 -41 62 -66 112 -66 39 0 40 0 39 -37 -2 -83 19 -41
40 80 12 71 25 131 27 134 3 3 23 2 45 -2 l39 -6 -23 -127 c-19 -107 -20 -129
-9 -141 15 -16 13 -23 43 159 l18 105 33 -3 c43 -5 38 19 -6 30 -28 7 -31 12
-37 64 -7 62 5 89 36 80 12 -3 18 0 15 7 -2 7 -19 12 -38 12 -19 0 -44 6 -56
13 -32 18 -50 15 -67 -10 -18 -25 -21 -83 -6 -93 5 -3 7 0 4 8 -10 27 14 67
41 67 32 0 56 -37 62 -94 l5 -44 -43 5 c-24 3 -73 12 -109 20 -36 9 -85 16
-110 18 -25 1 -52 5 -60 8 -39 14 -90 28 -122 32 -51 7 -448 139 -521 174
-105 50 -117 53 -117 32z m211 -200 c40 -40 37 -58 -11 -71 -83 -22 -135 20
-94 78 22 32 68 29 105 -7z m369 -30 c0 -3 -11 -40 -24 -81 -20 -65 -28 -77
-57 -92 -44 -23 -127 -24 -136 -2 -3 8 0 27 6 41 11 24 15 25 56 19 55 -7 63
15 13 34 -71 26 -78 30 -78 45 0 24 22 27 69 10 24 -8 45 -15 47 -15 2 0 10
15 18 34 14 34 15 34 50 24 20 -6 36 -14 36 -17z m284 -37 c21 -21 20 -47 -3
-68 -40 -36 -88 14 -61 63 13 25 42 27 64 5z m82 -58 c-2 -11 -8 -43 -11 -69
-8 -54 -24 -67 -81 -67 -34 0 -74 22 -74 40 0 4 20 15 45 24 49 19 75 48 75
82 0 17 5 20 26 16 20 -4 24 -9 20 -26z"/>
<path d="M7590 2529 c-159 -74 -572 -197 -834 -249 -54 -11 -61 -10 -73 6 -19
26 -16 71 7 94 34 34 93 25 150 -24 l25 -21 -20 24 c-27 31 -87 61 -125 61
-38 0 -80 -39 -80 -73 0 -13 9 -36 20 -50 25 -31 25 -35 0 -39 -31 -5 -29 -23
2 -26 31 -4 30 0 59 -149 13 -69 27 -114 35 -117 19 -7 18 2 -11 144 -14 68
-23 125 -21 128 3 2 47 13 98 23 51 10 103 21 115 24 19 4 24 -1 32 -32 17
-59 15 -67 -11 -49 -35 25 -94 20 -123 -9 -33 -32 -31 -60 4 -96 37 -36 104
-41 139 -9 28 26 29 26 36 -15 4 -20 16 -39 27 -46 18 -9 20 -8 16 8 -32 111
-67 257 -62 261 3 3 11 7 18 8 7 1 36 9 66 18 43 13 56 13 63 4 13 -21 5 -30
-42 -47 -55 -20 -59 -46 -13 -76 25 -16 32 -27 33 -52 0 -40 30 -63 83 -63 31
0 46 7 75 36 20 20 38 31 40 25 6 -19 36 -44 39 -34 2 5 -15 67 -37 138 -22
71 -39 130 -37 131 1 1 18 5 37 9 l35 6 44 -121 c37 -104 61 -145 75 -129 2 2
-18 63 -45 134 -27 72 -49 131 -49 132 0 2 104 32 105 30 1 -1 11 -28 23 -59
17 -47 18 -57 6 -62 -22 -9 -17 -24 16 -41 40 -21 51 -19 45 8 -5 20 0 25 42
40 26 9 51 17 56 17 4 0 14 -18 23 -40 9 -22 25 -45 36 -51 25 -13 24 -9 -42
142 l-49 114 25 9 c25 10 28 30 3 33 -8 1 -43 -12 -79 -28z m49 -85 c14 -32
20 -58 15 -63 -11 -10 -72 -31 -89 -31 -12 0 -53 106 -44 113 5 5 82 36 89 36
3 1 16 -24 29 -55z m-362 -154 c13 -41 20 -83 17 -92 -9 -28 -83 -98 -104 -98
-27 0 -48 45 -33 68 5 9 24 21 42 26 41 12 34 32 -10 27 -82 -8 -104 -6 -104
9 0 9 19 21 47 31 61 20 62 22 50 59 -10 28 -9 32 11 40 48 20 60 9 84 -70z
m-306 -109 c22 -17 22 -20 7 -43 -15 -23 -73 -58 -96 -58 -13 0 -42 40 -42 58
0 7 11 24 25 37 29 30 73 33 106 6z"/>
<path d="M4491 2524 c0 -11 3 -14 6 -6 3 7 2 16 -1 19 -3 4 -6 -2 -5 -13z"/>
<path d="M6280 2363 c0 -15 15 -28 44 -38 29 -10 94 -80 84 -90 -9 -9 -45 -14
-151 -20 -164 -9 -190 -14 -176 -31 6 -8 22 -14 34 -14 19 0 23 -7 29 -46 10
-76 11 -74 -43 -74 l-48 0 -6 62 c-6 65 -28 98 -67 98 -20 0 -50 -30 -50 -52
0 -19 42 -58 63 -58 26 0 22 -47 -4 -55 -20 -7 -20 -8 7 -36 33 -34 44 -36 51
-9 4 16 14 20 53 20 l47 0 5 -51 c3 -29 12 -58 22 -67 16 -16 17 -13 12 53 -3
39 -8 104 -11 146 l-6 76 83 6 c46 4 100 7 121 7 36 0 38 -2 35 -27 -2 -21 -9
-29 -28 -31 -119 -12 -140 -23 -140 -71 0 -29 43 -104 78 -135 32 -28 27 -12
-14 40 -61 81 -39 128 66 136 l45 3 9 -87 c6 -62 13 -89 24 -93 8 -3 16 -4 17
-3 1 2 -4 53 -11 113 -18 154 -18 163 6 167 32 5 28 23 -5 26 -23 2 -36 11
-49 37 -10 18 -32 47 -50 63 -31 30 -76 51 -76 35z m-272 -216 c3 -40 -7 -47
-32 -21 -27 27 -18 68 14 62 9 -2 16 -16 18 -41z"/>
<path d="M7726 2237 c6 -18 73 -32 86 -19 6 6 -4 12 -27 16 -20 4 -43 10 -51
13 -10 3 -12 0 -8 -10z"/>
<path d="M5563 2207 c4 -14 74 -25 162 -26 92 -2 105 -8 105 -46 0 -28 -3 -32
-20 -28 -11 3 -31 -2 -45 -11 -23 -15 -26 -15 -61 9 -20 14 -44 25 -54 25 -22
0 -60 -41 -60 -66 0 -26 43 -112 74 -149 30 -34 36 -20 7 16 -54 69 -65 128
-29 153 29 21 41 20 69 -3 20 -16 22 -21 10 -35 -9 -11 -11 -20 -5 -26 7 -7
22 3 44 25 19 19 41 35 51 35 18 0 29 -43 29 -121 0 -30 6 -51 16 -60 14 -12
15 0 13 132 l-3 144 27 3 c28 3 37 20 15 26 -7 3 -89 7 -181 10 -127 3 -167 2
-164 -7z"/>
<path d="M9060 10238 c0 -38 4 -46 35 -67 19 -13 33 -26 31 -30 -3 -4 -79
-101 -171 -216 -152 -192 -165 -212 -159 -240 3 -16 10 -34 14 -38 4 -5 85 90
180 210 95 120 178 224 185 231 9 10 26 2 86 -44 41 -31 78 -60 82 -64 5 -4
-49 -74 -119 -156 -70 -82 -151 -176 -179 -209 -51 -60 -52 -60 -41 -102 l11
-42 194 229 195 229 37 -30 c71 -56 314 -280 353 -326 l40 -45 -90 -87 c-49
-47 -137 -132 -196 -188 -87 -83 -108 -108 -108 -130 0 -16 4 -33 8 -40 5 -8
77 54 222 191 l215 204 47 -46 c33 -32 49 -41 52 -31 18 59 18 60 -82 163 -76
80 -293 284 -382 360 -112 95 -407 326 -447 350 -10 5 -13 -4 -13 -36z"/>
<path d="M2236 9704 c-74 -68 -103 -100 -94 -106 10 -6 9 -8 -3 -8 -14 0 -227
-232 -318 -346 l-33 -42 -75 35 c-90 42 -206 68 -256 59 -46 -9 -97 -65 -97
-106 0 -41 57 -102 121 -130 70 -30 101 -17 37 16 -56 28 -78 57 -78 100 0 52
41 78 109 71 65 -7 211 -56 211 -71 -1 -6 -19 -31 -40 -56 -34 -39 -37 -46
-22 -52 16 -6 16 -7 0 -7 -18 -1 -188 -218 -188 -240 0 -7 -47 -92 -104 -189
-58 -97 -103 -178 -101 -180 2 -2 21 -1 43 3 38 6 40 8 150 198 61 106 119
202 129 214 l18 22 223 -160 223 -160 41 13 41 14 -242 172 c-132 95 -241 176
-241 181 0 4 16 29 35 54 19 25 35 50 35 55 0 4 13 21 29 36 l29 27 203 -162
c112 -89 209 -166 214 -170 6 -4 30 -3 53 3 l42 10 -232 185 c-128 102 -233
189 -233 194 0 12 153 187 178 204 18 11 31 12 60 4 61 -17 73 -67 37 -161
-11 -29 -20 -54 -20 -55 0 -1 24 -9 53 -19 57 -19 127 -21 170 -5 51 20 125
99 143 154 l17 51 -34 28 -34 29 -16 -65 c-21 -83 -48 -126 -97 -154 -39 -22
-106 -30 -116 -14 -3 5 4 37 15 73 27 84 15 133 -36 155 -19 8 -45 14 -57 14
-54 1 -49 15 43 118 50 56 94 102 99 102 4 0 91 -88 192 -195 l183 -194 48 -1
49 0 -69 74 c-37 40 -131 140 -208 221 l-140 148 48 42 c51 45 51 49 1 59 -29
6 -39 -1 -138 -90z"/>
<path d="M9381 9647 c-16 -20 -32 -112 -25 -146 9 -43 30 -45 73 -6 l38 35 82
-75 c45 -41 85 -75 90 -75 4 0 16 10 27 21 19 21 19 21 -22 58 -23 20 -83 73
-133 119 -92 83 -110 93 -130 69z"/>
<path d="M10338 8972 c-14 -36 -14 -41 5 -66 12 -17 16 -31 10 -34 -5 -4 -50
-33 -101 -65 -73 -47 -95 -66 -111 -101 -25 -50 -28 -134 -7 -175 16 -30 80
-91 97 -91 5 0 26 11 45 24 l36 24 -34 7 c-46 10 -90 33 -110 59 -22 26 -23
74 -3 102 14 21 215 154 231 154 15 0 152 -227 143 -234 -2 -2 -110 -63 -240
-136 l-237 -133 -5 -41 c-3 -22 -5 -41 -4 -43 2 -1 325 181 484 273 l42 24 31
-55 c17 -30 35 -53 39 -50 5 2 14 18 21 34 11 29 8 37 -60 158 -61 107 -248
403 -255 403 -1 0 -9 -17 -17 -38z"/>
<path d="M1641 8648 c-52 -89 -65 -121 -69 -165 -4 -50 -3 -55 30 -86 19 -18
55 -39 79 -46 74 -22 325 -12 316 13 -3 7 -31 10 -85 8 -109 -5 -184 12 -228
50 -58 51 -49 86 67 275 l20 32 -30 15 c-17 9 -31 16 -33 16 -2 0 -32 -50 -67
-112z"/>
<path d="M10693 8439 c-37 -48 -37 -52 32 -197 36 -76 65 -143 65 -149 0 -6
-26 -22 -57 -36 -55 -23 -59 -24 -86 -8 -15 8 -48 41 -73 73 -53 65 -93 88
-157 88 -93 0 -159 -86 -165 -216 -4 -66 -1 -78 29 -134 18 -34 55 -81 82
-106 l50 -45 27 33 27 32 -46 39 c-77 67 -131 157 -131 219 0 35 32 88 61 103
50 27 86 10 175 -80 45 -46 90 -88 101 -94 24 -12 58 -4 130 33 29 14 57 26
63 26 6 0 27 -34 46 -75 19 -41 36 -75 38 -75 2 0 13 15 24 33 l19 34 -111
234 c-61 129 -116 245 -121 258 -9 19 -13 21 -22 10z"/>
<path d="M1269 8383 c-15 -4 -209 -395 -209 -420 0 -6 -25 -70 -54 -142 -49
-116 -53 -131 -36 -131 40 0 68 19 80 54 6 20 15 36 19 36 3 0 120 -45 259
-100 244 -96 254 -99 282 -85 16 8 31 19 34 23 3 5 -119 58 -270 118 -245 97
-275 111 -271 129 9 37 45 129 86 217 l41 87 87 -40 c127 -58 150 -91 88 -129
-36 -22 -44 -47 -23 -68 23 -23 103 -11 283 42 159 46 180 55 177 72 -2 10 -5
20 -6 21 0 1 -64 -16 -141 -38 -77 -21 -145 -39 -151 -39 -6 0 -14 18 -18 40
-11 72 -80 126 -243 190 l-22 9 34 76 c19 42 35 78 35 81 0 5 -38 3 -61 -3z"/>
<path d="M10942 7831 l-21 -29 58 -169 c65 -186 86 -261 78 -269 -3 -3 -121
-38 -264 -78 l-258 -73 -18 -37 c-10 -21 -17 -39 -15 -41 2 -1 127 33 278 76
151 43 282 78 291 79 29 0 74 -212 47 -222 -7 -3 -129 -27 -271 -54 l-259 -48
-19 -38 c-11 -21 -17 -38 -13 -38 3 0 135 25 293 55 158 30 290 55 293 55 3 0
11 -30 18 -66 l13 -66 29 29 29 29 -27 143 c-23 119 -30 141 -43 136 -15 -6
-15 -5 0 10 14 15 13 27 -19 138 -41 144 -165 507 -173 507 -3 0 -15 -13 -27
-29z"/>
<path d="M10679 7663 c-43 -46 -59 -76 -59 -107 0 -28 1 -28 38 -23 20 4 46 8
56 9 17 3 26 -13 55 -100 36 -103 36 -103 65 -98 16 4 31 8 33 10 2 1 -23 77
-55 167 -52 148 -60 164 -83 167 -16 2 -33 -6 -50 -25z"/>
<path d="M960 7649 c-22 -8 -30 -25 -63 -142 -44 -158 -61 -226 -56 -231 2 -2
20 3 40 10 34 14 37 19 54 95 10 44 22 82 26 85 6 3 421 -108 524 -140 6 -2
26 8 44 23 l33 27 -284 78 c-156 44 -286 82 -291 86 -4 3 0 28 8 56 8 27 15
52 15 57 0 9 -18 8 -50 -4z"/>
<path d="M1201 7352 c-5 -20 -17 -66 -26 -102 -9 -36 -18 -70 -20 -76 -2 -8
-33 -4 -102 12 -114 27 -151 29 -196 10 -88 -36 -94 -175 -9 -207 44 -17 92
-1 137 44 22 23 45 50 50 61 9 16 17 17 53 11 l43 -7 -3 -41 c-4 -52 13 -58
77 -26 87 44 108 93 45 105 -16 4 -30 9 -30 13 0 3 13 54 29 114 16 59 29 107
28 107 -1 0 -17 4 -34 9 -32 9 -33 8 -42 -27z m-249 -214 c32 -7 58 -15 58
-19 0 -4 -11 -21 -25 -37 -32 -38 -72 -48 -119 -28 -29 12 -36 20 -36 43 0 54
23 62 122 41z"/>
<path d="M1110 5315 c-118 -13 -266 -29 -329 -36 l-113 -12 4 -53 c3 -30 7
-56 10 -59 5 -5 561 48 636 60 27 5 32 10 32 34 0 38 -11 91 -19 90 -3 -1
-103 -12 -221 -24z"/>
<path d="M10980 5278 c-184 -22 -336 -41 -337 -42 -1 -1 -5 -38 -9 -81 l-6
-80 327 -108 c179 -60 328 -107 329 -105 2 1 6 29 9 60 l5 57 -71 21 c-40 11
-78 23 -84 25 -9 3 -11 22 -7 67 3 35 7 68 9 74 2 6 40 14 86 17 45 4 84 9 86
11 9 9 15 126 7 125 -5 -1 -160 -19 -344 -41z m61 -163 c-1 -28 -4 -52 -6 -53
-4 -4 -255 68 -270 77 -9 5 229 30 265 27 11 -1 14 -13 11 -51z"/>
<path d="M1015 5084 c-165 -29 -304 -53 -309 -54 -8 0 0 -99 9 -108 1 -2 105
15 230 38 125 22 229 39 231 37 2 -1 -94 -58 -212 -126 l-216 -124 7 -51 c4
-28 11 -55 16 -60 7 -8 538 75 645 100 20 5 20 9 12 57 -6 29 -11 53 -12 54
-1 2 -103 -15 -225 -38 -123 -22 -225 -38 -228 -36 -2 2 92 59 210 127 l213
122 -10 59 c-9 55 -12 59 -35 58 -14 -1 -161 -25 -326 -55z"/>
<path d="M10586 4928 c-7 -21 -24 -98 -22 -98 0 0 101 -22 224 -49 205 -45
262 -61 219 -61 -22 0 -480 -59 -483 -62 -1 -2 -9 -29 -17 -61 -15 -56 -15
-57 6 -62 131 -31 641 -144 642 -142 6 8 25 100 21 104 -2 2 -104 26 -226 53
-122 27 -224 50 -226 53 -2 2 78 14 178 27 101 12 214 28 252 34 l70 11 12 55
c7 30 11 57 8 59 -2 2 -140 34 -306 72 -167 37 -313 71 -326 74 -14 3 -24 1
-26 -7z"/>
<path d="M1145 4602 c-176 -46 -322 -86 -324 -88 -7 -7 59 -238 78 -269 48
-84 142 -96 349 -45 153 37 214 63 252 106 44 51 47 90 15 218 -15 61 -33 122
-39 137 l-11 25 -320 -84z m274 -83 c6 -18 11 -49 11 -69 0 -63 -45 -91 -217
-135 -120 -30 -203 -33 -226 -7 -17 19 -52 110 -46 117 3 3 442 121 461 124 3
1 11 -13 17 -30z"/>
<path d="M10406 4309 c-37 -105 -66 -192 -64 -194 2 -1 24 -9 50 -18 l47 -15
21 54 c11 30 20 59 20 64 0 6 6 10 12 10 7 0 129 -39 271 -86 142 -47 260 -84
263 -81 3 3 14 27 24 55 l19 51 -262 87 c-144 47 -265 90 -270 93 -4 4 2 34
13 66 11 32 20 61 20 65 0 4 -17 12 -37 19 -21 7 -43 14 -49 17 -7 3 -38 -72
-78 -187z"/>
<path d="M1305 4145 c-164 -62 -306 -117 -314 -122 -12 -8 -12 -16 4 -59 10
-27 20 -51 21 -52 1 -2 145 49 318 114 349 131 323 114 287 195 l-16 36 -300
-112z"/>
<path d="M10271 3978 c-17 -39 -28 -75 -24 -78 8 -7 457 -333 519 -377 l30
-22 27 55 27 54 -70 46 c-39 26 -70 50 -70 55 0 18 53 129 62 129 5 0 40 -7
79 -16 38 -9 74 -14 79 -12 18 6 61 108 47 113 -22 7 -645 125 -660 125 -8 0
-28 -31 -46 -72z m272 -83 c64 -15 117 -31 117 -36 0 -26 -34 -90 -46 -85 -21
8 -224 146 -224 152 0 3 8 3 18 0 9 -2 70 -17 135 -31z"/>
<path d="M1390 3912 c-184 -36 -337 -67 -339 -69 -3 -2 7 -28 21 -57 l27 -54
82 19 c45 11 83 18 84 17 11 -13 55 -111 55 -123 0 -8 -29 -34 -65 -57 -35
-24 -65 -47 -65 -51 0 -18 43 -107 52 -107 16 0 548 392 548 404 -1 6 -15 41
-33 77 l-32 66 -335 -65z m255 -61 c-20 -17 -225 -151 -232 -151 -9 0 -48 89
-42 94 4 3 256 63 274 65 6 1 6 -2 0 -8z"/>
<path d="M10204 3766 c-17 -8 -43 -29 -57 -47 -48 -64 -137 -223 -129 -231 11
-11 575 -329 577 -325 14 16 55 89 55 95 0 5 -54 39 -120 76 -66 37 -120 69
-120 71 0 2 17 35 37 71 66 121 45 199 -73 265 -61 35 -127 45 -170 25z m123
-137 c39 -24 55 -56 46 -90 -7 -27 -42 -89 -50 -89 -5 0 -135 71 -161 89 -12
7 -11 14 3 41 9 18 29 44 43 57 31 28 63 26 119 -8z"/>
<path d="M1586 3529 c-154 -87 -284 -163 -289 -168 -5 -5 3 -27 20 -54 l28
-46 199 115 c109 63 200 113 202 111 2 -2 -66 -86 -151 -187 -85 -101 -155
-188 -155 -193 0 -15 51 -97 61 -97 10 0 558 307 573 320 7 7 -38 100 -49 100
-2 0 -68 -37 -147 -83 -251 -146 -264 -153 -248 -131 8 10 75 91 149 179 74
88 140 167 147 175 10 12 7 24 -19 68 -18 28 -34 52 -37 51 -3 -1 -131 -72
-284 -160z"/>
<path d="M9858 3261 l-37 -48 69 -114 c37 -63 67 -115 66 -116 -1 -2 -61 13
-132 33 l-129 36 -42 -48 c-28 -32 -38 -51 -30 -55 7 -4 93 -25 192 -48 99
-23 188 -44 197 -47 9 -3 68 -44 129 -91 l113 -85 38 43 c20 24 37 46 37 49 0
3 -50 43 -112 90 l-112 85 -99 183 c-55 100 -102 182 -105 182 -3 -1 -23 -22
-43 -49z"/>
<path d="M1963 2928 c-285 -219 -270 -201 -216 -266 l28 -32 250 191 c138 105
258 197 269 204 18 13 17 16 -19 59 -21 25 -40 46 -44 45 -3 0 -124 -91 -268
-201z"/>
<path d="M2115 2754 c-137 -112 -251 -209 -253 -213 -3 -10 56 -81 67 -81 4 0
83 63 175 140 93 77 173 143 178 146 13 8 5 -6 -124 -228 -59 -103 -108 -193
-108 -200 0 -8 18 -31 39 -52 l40 -39 253 208 c139 114 254 210 256 214 3 8
-57 81 -68 81 -4 0 -86 -65 -181 -144 -96 -79 -175 -143 -177 -141 -1 1 52 95
118 209 66 114 120 210 120 215 0 10 -70 91 -78 91 -4 -1 -119 -93 -257 -206z"/>
<path d="M9535 2858 c-36 -19 -106 -92 -126 -130 -43 -84 -15 -165 94 -264
121 -111 239 -188 314 -204 104 -24 227 96 195 189 -12 35 -7 38 26 15 22 -15
25 -15 48 7 14 13 23 28 22 35 -2 7 -64 62 -138 123 l-135 112 -25 -29 c-14
-16 -44 -52 -67 -79 l-42 -50 41 -31 42 -32 26 32 27 32 35 -27 c19 -15 43
-43 53 -62 18 -32 18 -36 2 -70 -21 -43 -58 -60 -100 -46 -47 17 -155 99 -244
186 -95 92 -103 116 -54 166 35 35 72 37 121 8 l35 -21 36 42 37 43 -23 19
c-56 44 -154 62 -200 36z"/>
<path d="M2640 2565 c-42 -19 -87 -60 -106 -97 -18 -34 -17 -104 1 -188 8 -36
14 -88 15 -117 0 -45 -4 -54 -31 -77 -37 -31 -67 -33 -102 -6 -48 38 -44 73
19 140 l24 26 -43 42 -44 43 -37 -42 c-75 -82 -85 -149 -33 -225 57 -86 138
-125 222 -110 40 8 117 72 141 117 18 35 17 115 -1 199 -21 95 -19 156 5 180
27 27 66 25 95 -5 32 -31 31 -53 -1 -100 l-26 -38 35 -35 c41 -40 53 -38 93
13 20 26 29 51 31 88 4 45 0 59 -25 99 -54 83 -159 125 -232 93z"/>
<path d="M9220 2543 c-38 -15 -104 -72 -126 -109 -30 -51 -32 -120 -4 -174 44
-86 214 -273 289 -318 92 -54 202 -24 278 76 28 37 33 52 33 98 0 70 -20 109
-113 221 -85 102 -162 173 -211 197 -33 15 -115 20 -146 9z m79 -107 c36 -19
201 -193 246 -259 44 -65 45 -97 4 -131 -42 -35 -68 -33 -125 13 -90 72 -244
263 -244 303 0 29 18 56 48 72 34 19 37 19 71 2z"/>
<path d="M2930 2330 c-18 -23 -31 -42 -29 -43 2 -2 27 -20 54 -42 28 -21 51
-40 53 -41 2 -1 -74 -100 -170 -219 -95 -119 -172 -219 -171 -223 2 -4 23 -22
47 -40 l45 -33 172 215 c95 119 177 216 182 216 5 0 32 -18 60 -41 l51 -40 33
38 c18 21 31 41 30 45 -2 6 -316 248 -322 248 -2 0 -18 -18 -35 -40z"/>
<path d="M8747 2154 l-47 -37 43 -51 c24 -28 119 -142 211 -253 92 -112 172
-203 177 -203 11 0 263 197 266 208 1 4 -13 25 -31 46 l-34 39 -83 -66 c-46
-36 -87 -68 -90 -69 -4 -2 -86 93 -184 210 -97 116 -178 212 -179 212 -2 0
-24 -16 -49 -36z"/>
<path d="M3132 1833 l-200 -267 47 -33 c25 -18 48 -33 51 -33 8 0 404 530 399
533 -2 2 -20 14 -39 28 -19 14 -40 28 -47 32 -7 5 -85 -92 -211 -260z"/>
<path d="M8514 2021 c-99 -45 -154 -128 -139 -209 21 -114 210 -384 292 -418
72 -31 157 -11 232 52 43 36 62 76 62 132 1 57 -16 99 -83 206 -142 230 -240
293 -364 237z m91 -93 c51 -23 226 -282 241 -355 5 -26 1 -37 -19 -57 -36 -36
-73 -43 -105 -19 -67 48 -232 304 -232 358 0 38 40 80 82 84 4 1 19 -4 33 -11z"/>
<path d="M3414 1985 c-14 -25 -25 -47 -23 -49 2 -1 29 -17 59 -35 30 -19 56
-34 58 -36 1 -1 -63 -109 -144 -239 -80 -131 -144 -239 -142 -240 15 -13 100
-58 102 -55 2 2 68 108 146 234 78 127 144 232 146 234 2 2 31 -13 65 -33 58
-34 62 -36 75 -19 8 10 -16 -45 -52 -122 -118 -248 -138 -297 -138 -347 -1
-56 20 -89 87 -135 56 -38 139 -59 193 -48 69 12 107 66 224 314 58 123 106
226 108 230 1 4 -22 19 -52 33 l-53 26 -104 -219 c-119 -252 -140 -283 -189
-281 -47 1 -84 32 -88 71 -3 32 17 79 162 384 l56 118 -43 19 c-23 10 -49 20
-57 22 -8 2 -17 6 -20 10 -3 3 -79 50 -170 103 -91 54 -168 99 -172 101 -4 3
-19 -16 -34 -41z"/>
<path d="M8208 1825 l-46 -25 104 -196 c58 -108 103 -198 101 -200 -2 -3 -82
66 -178 152 -96 86 -179 158 -185 161 -11 4 -114 -42 -114 -51 0 -4 300 -579
305 -584 2 -2 26 8 53 22 l50 25 -65 123 c-35 68 -85 161 -110 208 -29 53 -39
79 -27 69 20 -16 291 -256 337 -298 l27 -25 56 27 c30 15 54 31 52 36 -11 31
-303 581 -307 581 -3 -1 -27 -12 -53 -25z"/>
<path d="M7763 1630 c-24 -11 -43 -21 -43 -24 0 -3 20 -54 45 -115 25 -60 45
-114 45 -118 0 -6 -141 -67 -158 -68 -2 0 -24 50 -48 110 -25 61 -49 114 -54
119 -8 8 -96 -20 -105 -34 -5 -8 231 -589 245 -604 9 -9 97 21 106 35 3 5 -20
68 -50 141 -31 73 -52 136 -48 139 8 8 140 59 152 59 4 0 31 -57 60 -127 28
-71 55 -131 59 -136 8 -8 98 20 106 33 9 14 -241 605 -256 607 -8 1 -33 -7
-56 -17z"/>
<path d="M4181 1593 c-7 -21 -14 -43 -17 -48 -2 -6 25 -21 61 -33 36 -13 65
-29 65 -36 0 -11 -151 -426 -180 -493 -8 -20 -4 -23 50 -41 l58 -20 97 259
c54 142 101 259 106 259 4 0 34 -9 65 -21 32 -12 60 -17 65 -12 5 5 15 26 22
48 l14 40 -190 67 c-104 38 -193 68 -197 68 -4 0 -12 -17 -19 -37z"/>
<path d="M4565 1173 c-50 -170 -90 -312 -90 -318 0 -7 324 -106 331 -101 1 1
9 24 17 52 l15 52 -104 28 c-58 15 -107 31 -110 35 -4 7 43 179 49 179 1 0 46
-13 99 -29 l97 -29 16 46 c18 55 21 52 -92 82 -46 13 -86 26 -88 30 -3 5 32
139 39 147 1 2 49 -11 106 -27 57 -16 105 -28 108 -26 2 2 10 25 17 50 11 36
12 48 2 51 -43 14 -305 85 -313 85 -5 0 -50 -138 -99 -307z"/>
<path d="M7180 1454 c-92 -33 -139 -108 -125 -203 10 -78 74 -290 105 -352 53
-104 125 -136 236 -104 113 33 159 111 134 230 l-12 57 -35 -7 c-63 -12 -86
-24 -79 -42 4 -9 10 -36 13 -59 5 -36 2 -46 -20 -68 -35 -34 -69 -33 -100 3
-27 33 -87 208 -112 327 -15 75 -15 79 3 103 23 32 76 40 102 16 10 -9 24 -31
31 -48 7 -18 13 -33 14 -34 0 -1 26 6 58 15 l57 17 -24 50 c-37 79 -75 108
-143 112 -36 2 -76 -3 -103 -13z"/>
<path d="M6785 1359 c-150 -31 -147 -30 -390 -49 -88 -7 -164 -16 -169 -21 -5
-4 -5 -28 -2 -54 l7 -46 72 3 72 3 24 -272 24 -273 48 0 c81 0 77 -21 50 281
-13 148 -20 273 -17 276 4 4 36 9 71 11 63 4 64 5 67 36 2 17 30 -104 62 -269
32 -165 60 -301 61 -303 2 -2 337 59 343 63 1 1 -3 25 -9 54 l-11 52 -36 -7
c-21 -3 -68 -12 -105 -20 -38 -8 -72 -14 -76 -14 -9 0 -47 178 -40 184 2 1 48
10 102 20 l98 18 -6 32 c-14 67 -14 67 -53 60 -20 -3 -65 -12 -100 -19 -34 -7
-64 -10 -66 -6 -7 13 -28 142 -24 147 3 2 49 13 102 23 54 11 100 21 103 24 2
3 1 26 -2 51 -9 56 -3 55 -200 15z"/>
<path d="M5282 1329 c-74 -37 -107 -110 -131 -292 -29 -209 0 -324 89 -359 47
-18 122 -28 162 -22 115 19 161 110 188 375 22 219 -31 303 -198 315 -56 5
-74 2 -110 -17z m165 -101 c20 -19 23 -31 23 -97 0 -93 -24 -261 -46 -319 -22
-59 -61 -76 -117 -51 -51 23 -57 76 -32 261 18 130 39 204 63 218 30 17 84 11
109 -12z"/>
<path d="M5677 1208 c-4 -51 -10 -200 -13 -330 l-7 -238 62 0 61 0 0 68 c0 38
3 104 7 147 l6 78 109 -7 108 -7 0 49 c0 47 -1 50 -31 56 -17 3 -68 6 -112 6
l-80 0 7 61 c3 34 6 70 6 80 0 17 10 19 115 19 l115 0 0 48 0 49 -112 6 c-62
4 -141 7 -174 7 l-61 0 -6 -92z"/>
</g>
</svg>
